<svg width="17" height="18" viewBox="0 0 17 18" fill="none" xmlns="http://www.w3.org/2000/svg">
<path d="M5.3677 15.5305V15.0814H2.0129C0.901789 15.08 0.00162877 14.1761 1.84669e-05 13.0606V12.7176C-0.00347053 11.846 0.487672 11.0482 1.26599 10.6618C1.61301 10.4878 1.84516 10.1453 1.87871 9.75735L2.27779 5.34751C2.55611 2.27165 5.26571 0.00462684 8.32959 0.28403C8.72653 0.320135 9.11864 0.399079 9.49894 0.519247C9.25363 0.902113 9.06254 1.31758 8.93077 1.75326C8.57086 1.65761 8.19996 1.60911 7.82771 1.60965C5.63662 1.59941 3.8049 3.27987 3.61864 5.47145L3.22063 9.8794C3.14548 10.7327 2.6334 11.4852 1.86878 11.8659C1.54537 12.0257 1.34087 12.3566 1.34194 12.7182V13.0612C1.34301 13.4327 1.6428 13.7334 2.0129 13.7339H13.6428C14.0132 13.7334 14.3132 13.4322 14.3137 13.0603V12.7174C14.3151 12.3563 14.1119 12.026 13.7896 11.8659C13.0242 11.486 12.511 10.7332 12.4351 9.8794L12.256 7.92142C12.6994 8.05183 13.1592 8.11865 13.6213 8.11999L13.7697 9.75627C13.8065 10.1429 14.0381 10.4837 14.3835 10.6589C15.1624 11.0455 15.6543 11.8433 15.6522 12.7155V13.0585C15.6511 14.1742 14.7507 15.0781 13.6393 15.0792H10.288V15.53C10.288 16.8941 9.18654 17.9999 7.82771 17.9999C6.46888 17.9999 5.36743 16.8941 5.36743 15.53L5.3677 15.5305ZM6.70962 15.5305C6.70962 16.1505 7.21016 16.6533 7.82798 16.6533C8.4458 16.6533 8.94633 16.1508 8.94633 15.5305V15.0814H6.70989V15.5305H6.70962ZM13.4614 6.31936C12.974 6.29107 12.4997 6.14827 12.0773 5.90255L12.0379 5.47145C11.9423 4.35977 11.4122 3.33133 10.5636 2.61087C10.649 2.15121 10.8355 1.71634 11.1092 1.33833C12.4037 2.28512 13.2292 3.74626 13.3744 5.34751L13.4638 6.31828L13.4611 6.31909L13.4614 6.31936Z" fill="#141124"/>
<path d="M13.3207 7.01058C11.3849 7.01058 9.81531 5.44129 9.81531 3.50514C9.81531 1.56899 11.3849 0 13.3207 0C15.2566 0 16.8262 1.56929 16.8262 3.50544C16.8262 5.44159 15.2569 7.01058 13.3207 7.01058Z" fill="#009D89"/>
</svg>
