<svg width="24" height="24" viewBox="0 0 24 24" fill="none" xmlns="http://www.w3.org/2000/svg">
<path d="M16.3792 12.0001L16.8571 11.5051C17.0329 11.3227 17.1298 11.083 17.1298 10.8304C17.1298 10.2946 16.6939 9.8584 16.1578 9.8584C15.7477 9.8584 15.3181 9.9499 14.8792 10.1287L13.0078 12.0001L14.8792 13.8715C15.3178 14.05 15.7474 14.1418 16.1578 14.1418C16.6936 14.1418 17.1298 13.7059 17.1298 13.1698C17.1298 12.9172 17.0329 12.6775 16.8571 12.4954L16.3792 12.0001Z" fill="#009D89"/>
<path d="M13.8712 14.8797L12.0001 13.0083L10.129 14.8797C9.9505 15.3183 9.8587 15.7479 9.8587 16.1583C9.8587 16.6941 10.2946 17.1303 10.8307 17.1303C11.0833 17.1303 11.323 17.0334 11.5051 16.8576L12.0001 16.3797L12.4951 16.8576C12.6775 17.0334 12.9169 17.1303 13.1695 17.1303C13.7053 17.1303 14.1415 16.6944 14.1415 16.1583C14.1415 15.7482 14.05 15.3186 13.8712 14.8797Z" fill="#009D89"/>
<path d="M9.12066 10.1287C8.68206 9.9502 8.25246 9.8584 7.84206 9.8584C7.30626 9.8584 6.87006 10.2943 6.87006 10.8304C6.87006 11.083 6.96696 11.3227 7.14276 11.5048L7.62066 11.9998L7.14276 12.4948C6.96696 12.6772 6.87006 12.9166 6.87006 13.1692C6.87006 13.705 7.30596 14.1412 7.84206 14.1412C8.25216 14.1412 8.68176 14.0497 9.12066 13.8709L10.9918 11.9998L9.12066 10.1284V10.1287Z" fill="#009D89"/>
<path d="M13.1698 6.87012C12.9172 6.87012 12.6775 6.96702 12.4954 7.14282L12.0004 7.62072L11.5054 7.14282C11.323 6.96702 11.0836 6.87012 10.831 6.87012C10.2952 6.87012 9.85901 7.30602 9.85901 7.84212C9.85901 8.25222 9.95051 8.68182 10.1293 9.12072L12.0004 10.9921L13.8718 9.12072C14.0503 8.68212 14.1421 8.25252 14.1421 7.84212C14.1421 7.30632 13.7062 6.87012 13.1701 6.87012H13.1698Z" fill="#009D89"/>
<path d="M12 3.35034C7.2306 3.35034 3.3501 7.23054 3.3501 12.0002C3.3501 16.7699 7.2303 20.6501 12 20.6501C16.7697 20.6501 20.6499 16.7699 20.6499 12.0002C20.6499 7.23054 16.7694 3.35034 12 3.35034ZM16.158 15.5675C15.9471 15.5675 15.7341 15.5516 15.5202 15.5204C15.5517 15.7343 15.5673 15.9473 15.5673 16.1582C15.5673 17.4803 14.4918 18.5558 13.1697 18.5558C12.7545 18.5558 12.354 18.4502 12 18.2516C11.646 18.4502 11.2455 18.5558 10.8303 18.5558C9.5082 18.5558 8.4327 17.4803 8.4327 16.1582C8.4327 15.9473 8.4486 15.7343 8.4798 15.5204C8.2659 15.5519 8.0529 15.5675 7.842 15.5675C6.5199 15.5675 5.4444 14.492 5.4444 13.1699C5.4444 12.7547 5.55 12.3542 5.7486 12.0002C5.55 11.6462 5.4444 11.2457 5.4444 10.8305C5.4444 9.50844 6.5199 8.43294 7.842 8.43294C8.0529 8.43294 8.2659 8.44884 8.4798 8.48004C8.4483 8.26614 8.4327 8.05314 8.4327 7.84224C8.4327 6.52014 9.5082 5.44464 10.8303 5.44464C11.2455 5.44464 11.646 5.55024 12 5.74884C12.354 5.55024 12.7545 5.44464 13.1697 5.44464C14.4918 5.44464 15.5673 6.52014 15.5673 7.84224C15.5673 8.05314 15.5514 8.26614 15.5202 8.48004C15.7341 8.44854 15.9471 8.43294 16.158 8.43294C17.4801 8.43294 18.5556 9.50844 18.5556 10.8305C18.5556 11.2457 18.45 11.6462 18.2514 12.0002C18.45 12.3542 18.5556 12.7547 18.5556 13.1699C18.5556 14.492 17.4801 15.5675 16.158 15.5675Z" fill="#009D89"/>
<path d="M20.4852 3.5148C18.2187 1.2483 15.2052 0 12 0C8.7948 0 5.7813 1.2483 3.5148 3.5148C1.2483 5.7813 0 8.7945 0 12C0 15.2055 1.2483 18.2187 3.5148 20.4852C5.7813 22.7517 8.7948 24 12 24C15.2052 24 18.2187 22.7517 20.4852 20.4852C22.7517 18.2187 24 15.2052 24 12C24 8.7948 22.7517 5.7813 20.4852 3.5148ZM12 22.0758C6.4443 22.0758 1.9242 17.556 1.9242 12C1.9242 6.444 6.4443 1.9242 12 1.9242C17.5557 1.9242 22.0758 6.444 22.0758 12C22.0758 17.556 17.556 22.0758 12 22.0758Z" fill="#009D89"/>
</svg>
