<svg width="45" height="29" viewBox="0 0 45 29" fill="none" xmlns="http://www.w3.org/2000/svg">
<path fill-rule="evenodd" clip-rule="evenodd" d="M14.0625 0C13.5032 0.000492334 12.9671 0.223052 12.5719 0.61875L10.3781 2.8125H2.10938C1.54993 2.8125 1.01341 3.03474 0.617822 3.43032C0.222237 3.82591 0 4.36243 0 4.92188C0 5.48132 0.222237 6.01784 0.617822 6.41343C1.01341 6.80901 1.54993 7.03125 2.10938 7.03125H5.625V21.0938C5.625 21.6532 5.40276 22.1897 5.00718 22.5853C4.61159 22.9809 4.07507 23.2031 3.51562 23.2031H2.10938C1.54993 23.2031 1.01341 23.4254 0.617822 23.8209C0.222237 24.2165 8.89035e-08 24.7531 8.89035e-08 25.3125C8.89035e-08 25.8719 0.222237 26.4085 0.617822 26.8041C1.01341 27.1996 1.54993 27.4219 2.10938 27.4219H3.51562C4.69437 27.4221 5.84974 27.0931 6.85154 26.4719C7.85334 25.8508 8.66174 24.9622 9.18563 23.9062H10.7522L19.3669 28.2122C20.3645 28.7111 21.4763 28.9374 22.5895 28.8683C23.7028 28.7991 24.778 28.4369 25.7063 27.8184L31.5759 23.9062H35.8144C36.3383 24.9622 37.1467 25.8508 38.1485 26.4719C39.1503 27.0931 40.3056 27.4221 41.4844 27.4219H42.8906C43.4501 27.4219 43.9866 27.1996 44.3822 26.8041C44.7778 26.4085 45 25.8719 45 25.3125C45 24.7531 44.7778 24.2165 44.3822 23.8209C43.9866 23.4254 43.4501 23.2031 42.8906 23.2031H41.4844C40.9249 23.2031 40.3884 22.9809 39.9928 22.5853C39.5972 22.1897 39.375 21.6532 39.375 21.0938V7.03125H42.8906C43.4501 7.03125 43.9866 6.80901 44.3822 6.41343C44.7778 6.01784 45 5.48132 45 4.92188C45 4.36243 44.7778 3.82591 44.3822 3.43032C43.9866 3.03474 43.4501 2.8125 42.8906 2.8125H34.6219L32.4281 0.61875C32.0329 0.223052 31.4968 0.000492334 30.9375 0H14.0625ZM11.25 7.03125H9.84375V19.6875H11.25C11.5773 19.6884 11.8998 19.7654 12.1922 19.9125L21.2541 24.4406C21.5866 24.6066 21.957 24.6818 22.3279 24.6586C22.6988 24.6354 23.057 24.5146 23.3662 24.3084L28.0125 21.2119L26.37 18.7481C26.067 18.2826 25.9598 17.7164 26.0718 17.1724C26.1837 16.6283 26.5057 16.1504 26.9678 15.8423C27.4299 15.5342 27.9949 15.4208 28.5402 15.5268C29.0854 15.6327 29.5668 15.9494 29.88 16.4081L32.0653 19.6875H35.1562V7.03125H33.75C33.1907 7.03076 32.6546 6.8082 32.2594 6.4125L30.0656 4.21875H24.7781L19.8703 9.13219C19.5013 9.49861 19.2896 9.99436 19.28 10.5143C19.2704 11.0342 19.4638 11.5374 19.819 11.9172C20.1743 12.297 20.6635 12.5234 21.1829 12.5485C21.7023 12.5736 22.2111 12.3953 22.6012 12.0516L25.3322 9.66094C25.5409 9.47848 25.7834 9.33891 26.0461 9.25021C26.3087 9.1615 26.5862 9.12538 26.8628 9.14393C27.1393 9.16247 27.4095 9.2353 27.658 9.35828C27.9064 9.48125 28.1282 9.65195 28.3106 9.86063C28.4931 10.0693 28.6326 10.3119 28.7214 10.5745C28.8101 10.8371 28.8462 11.1146 28.8276 11.3912C28.8091 11.6678 28.7363 11.938 28.6133 12.1864C28.4903 12.4348 28.3196 12.6566 28.1109 12.8391L25.38 15.2297C24.1694 16.319 22.5799 16.8899 20.9529 16.8198C19.3259 16.7497 17.7913 16.0442 16.6789 14.8548C15.5665 13.6654 14.9651 12.0872 15.0039 10.4591C15.0426 8.83107 15.7185 7.2832 16.8863 6.14812L18.8156 4.21875H14.9372L12.7434 6.4125C12.5474 6.60877 12.3146 6.76444 12.0583 6.87061C11.8021 6.97679 11.5274 7.03138 11.25 7.03125Z" fill="black"/>
<path d="M3.51562 19.3359C3.51562 19.8021 3.33043 20.2492 3.00077 20.5789C2.67112 20.9086 2.22401 21.0938 1.75781 21.0938C1.29161 21.0938 0.844505 20.9086 0.514851 20.5789C0.185198 20.2492 0 19.8021 0 19.3359C0 18.8697 0.185198 18.4226 0.514851 18.093C0.844505 17.7633 1.29161 17.5781 1.75781 17.5781C2.22401 17.5781 2.67112 17.7633 3.00077 18.093C3.33043 18.4226 3.51562 18.8697 3.51562 19.3359ZM45 19.3359C45 19.8021 44.8148 20.2492 44.4851 20.5789C44.1555 20.9086 43.7084 21.0938 43.2422 21.0938C42.776 21.0938 42.3289 20.9086 41.9992 20.5789C41.6696 20.2492 41.4844 19.8021 41.4844 19.3359C41.4844 18.8697 41.6696 18.4226 41.9992 18.093C42.3289 17.7633 42.776 17.5781 43.2422 17.5781C43.7084 17.5781 44.1555 17.7633 44.4851 18.093C44.8148 18.4226 45 18.8697 45 19.3359Z" fill="black"/>
</svg>
