<svg width="11" height="18" viewBox="0 0 11 18" fill="none" xmlns="http://www.w3.org/2000/svg">
<path d="M9.3509 17.9983C9.13415 17.9994 8.91915 17.9581 8.7189 17.8768C8.51865 17.7955 8.3371 17.676 8.18461 17.5253L0.482669 9.99969C0.173601 9.69738 0 9.28756 0 8.8601C0 8.43287 0.173601 8.02305 0.482669 7.72052L8.18461 0.259509C8.49488 0.0630056 8.86348 -0.0260532 9.23163 0.00660782C9.59978 0.0392473 9.94615 0.191737 10.2151 0.439608C10.484 0.687478 10.6598 1.01637 10.7146 1.3736C10.7694 1.73083 10.6998 2.09566 10.5172 2.40967L3.91552 8.8601L10.5172 15.3106C10.8264 15.6131 11 16.0229 11 16.4502C11 16.8776 10.8264 17.2875 10.5172 17.5898C10.1988 17.8708 9.77957 18.0177 9.3509 17.9983Z" fill="#1E1E1E"/>
</svg>
