<svg width="11" height="18" viewBox="0 0 11 18" fill="none" xmlns="http://www.w3.org/2000/svg">
<path d="M1.6491 0.00169458C1.86586 0.000619514 2.08085 0.0419012 2.2811 0.123177C2.48135 0.204454 2.6629 0.324002 2.8154 0.474729L10.5173 8.00031C10.8264 8.30262 11 8.71244 11 9.13989C11 9.56713 10.8264 9.97695 10.5173 10.2795L2.81539 17.7405C2.50512 17.937 2.13652 18.0261 1.76837 17.9934C1.40022 17.9608 1.05385 17.8083 0.784939 17.5604C0.516031 17.3125 0.340206 16.9836 0.285412 16.6264C0.230618 16.2692 0.300157 15.9043 0.482804 15.5903L7.08448 9.13989L0.482805 2.6894C0.173626 2.38687 1.40077e-06 1.97705 1.43812e-06 1.54981C1.47549e-06 1.12236 0.173626 0.712541 0.482805 0.410228C0.801226 0.129201 1.22043 -0.0176569 1.6491 0.00169458Z" fill="#1E1E1E"/>
</svg>
