<svg width="25" height="27" viewBox="0 0 25 27" fill="none" xmlns="http://www.w3.org/2000/svg">
<path fill-rule="evenodd" clip-rule="evenodd" d="M15.7635 17.7652C15.9179 17.6107 16.1012 17.4881 16.3029 17.4045C16.5046 17.3209 16.7209 17.2778 16.9393 17.2778C17.1576 17.2778 17.3739 17.3209 17.5756 17.4045C17.7774 17.4881 17.9606 17.6107 18.115 17.7652L24.5128 24.1625C24.8246 24.474 24.9999 24.8967 25.0001 25.3375C25.0002 25.7783 24.8252 26.2011 24.5136 26.5129C24.2021 26.8246 23.7793 26.9999 23.3385 27.0001C22.8977 27.0002 22.4749 26.8253 22.1631 26.5137L15.7652 20.1164C15.6107 19.9621 15.4881 19.7788 15.4045 19.5771C15.3209 19.3754 15.2778 19.1591 15.2778 18.9408C15.2778 18.7224 15.3209 18.5062 15.4045 18.3045C15.4881 18.1027 15.6107 17.9195 15.7652 17.7652H15.7635Z" fill="#191919"/>
<path fill-rule="evenodd" clip-rule="evenodd" d="M10.5 19.3846C11.6667 19.3846 12.8221 19.1548 13.9 18.7083C14.9779 18.2618 15.9574 17.6074 16.7824 16.7824C17.6074 15.9574 18.2618 14.9779 18.7083 13.9C19.1548 12.8221 19.3846 11.6667 19.3846 10.5C19.3846 9.33326 19.1548 8.17794 18.7083 7.1C18.2618 6.02207 17.6074 5.04264 16.7824 4.21763C15.9574 3.39262 14.9779 2.73818 13.9 2.29169C12.8221 1.84519 11.6667 1.61538 10.5 1.61538C8.14365 1.61538 5.88382 2.55144 4.21763 4.21763C2.55144 5.88382 1.61538 8.14365 1.61538 10.5C1.61538 12.8563 2.55144 15.1162 4.21763 16.7824C5.88382 18.4486 8.14365 19.3846 10.5 19.3846V19.3846ZM21 10.5C21 13.2848 19.8938 15.9555 17.9246 17.9246C15.9555 19.8938 13.2848 21 10.5 21C7.71523 21 5.04451 19.8938 3.07538 17.9246C1.10625 15.9555 0 13.2848 0 10.5C0 7.71523 1.10625 5.04451 3.07538 3.07538C5.04451 1.10625 7.71523 0 10.5 0C13.2848 0 15.9555 1.10625 17.9246 3.07538C19.8938 5.04451 21 7.71523 21 10.5V10.5Z" fill="#191919"/>
</svg>
